<svg height="512pt" viewBox="-15 0 512 512" width="512pt" xmlns="http://www.w3.org/2000/svg"><path d="m473.636719 256c0 52.660156-7.628907 102.621094-21.289063 147.5-7.660156 25.121094-17.210937 48.648438-28.371094 70.160156-4.488281 8.640625-9.230468 16.960938-14.21875 24.929688-2.300781 3.679687-6.339843 5.910156-10.691406 5.910156h-317c-4.347656 0-8.390625-2.230469-10.6875-5.910156-4.992187-7.96875-9.730468-16.289063-14.222656-24.929688-11.160156-21.511718-20.710938-45.039062-28.371094-70.160156-13.65625-44.878906-21.289062-94.839844-21.289062-147.5 0-36.089844 3.582031-70.921875 10.242187-103.710938 5-24.648437 11.738281-48.140624 20-70.160156 9.359375-24.957031 20.6875-48.027344 33.640625-68.71875 2.296875-3.679687 6.339844-5.910156 10.6875-5.910156h317c4.351563 0 8.390625 2.230469 10.691406 5.910156 12.949219 20.691406 24.277344 43.761719 33.640626 68.71875 8.257812 22.019532 15 45.511719 20 70.160156 6.660156 32.789063 10.238281 67.621094 10.238281 103.710938zm0 0" fill="#ac5e33"/><g fill="#9e552e"><path d="m462.695312 149c-4.921874-23.445312-11.40625-45.835938-19.296874-66.871094h-405.660157c-7.890625 21.035156-14.375 43.425782-19.300781 66.871094zm0 0"/><path d="m425.820312 470c10.363282-20.515625 19.296876-42.789062 26.527344-66.5h-423.5625c7.234375 23.710938 16.164063 45.984375 26.527344 66.5zm0 0"/><path d="m473.632812 256c0 93.984375-24.289062 179.375-63.871093 242.589844-2.308594 3.679687-6.351563 5.910156-10.695313 5.910156h-25.839844c4.34375 0 8.378907-2.230469 10.683594-5.910156 39.59375-63.21875 63.886719-148.609375 63.886719-242.589844s-24.289063-179.375-63.886719-242.589844c-2.304687-3.679687-6.335937-5.910156-10.683594-5.910156h25.839844c4.34375 0 8.386719 2.230469 10.695313 5.910156 39.582031 63.214844 63.871093 148.605469 63.871093 242.589844zm0 0"/></g><path d="m398.046875 256c0 52.660156-7.628906 102.621094-21.300781 147.5-7.648438 25.121094-17.199219 48.648438-28.359375 70.160156-5.609375 10.808594-11.621094 21.101563-18.007813 30.839844h-179.621094c-6.390624-9.738281-12.402343-20.03125-18.011718-30.839844-11.160156-21.511718-20.710938-45.039062-28.359375-70.160156-13.667969-44.878906-21.300781-94.839844-21.300781-147.5 0-36.089844 3.582031-70.921875 10.242187-103.710938 5-24.648437 11.738281-48.140624 20-70.160156 10.269531-27.367187 22.878906-52.449218 37.429687-74.628906h179.621094c14.546875 22.179688 27.15625 47.261719 37.429688 74.628906 8.257812 22.019532 15 45.511719 20 70.160156 6.660156 32.789063 10.238281 67.621094 10.238281 103.710938zm0 0" fill="#db885d"/><path d="m387.105469 149c-4.921875-23.445312-11.40625-45.835938-19.296875-66.871094h-254.480469c-7.890625 21.035156-14.375 43.425782-19.300781 66.871094zm0 0" fill="#c86d3d"/><path d="m350.230469 470c10.363281-20.515625 19.296875-42.789062 26.515625-66.5h-272.359375c7.222656 23.710938 16.152343 45.984375 26.515625 66.5zm0 0" fill="#c86d3d"/><path d="m295.996094 256c0 52.660156-2.679688 102.621094-7.488282 147.5-2.699218 25.121094-6.0625 48.648438-9.992187 70.160156-1.96875 10.808594-4.089844 21.101563-6.339844 30.839844h-63.21875c-2.25-9.738281-4.371093-20.03125-6.339843-30.839844-3.929688-21.511718-7.289063-45.039062-9.988282-70.160156-4.8125-44.878906-7.492187-94.839844-7.492187-147.5 0-36.089844 1.261719-70.921875 3.601562-103.710938 1.757813-24.648437 4.128907-48.140624 7.046875-70.160156 3.601563-27.367187 8.042969-52.449218 13.171875-74.628906h63.21875c5.132813 22.179688 9.570313 47.261719 13.171875 74.628906 2.917969 22.019532 5.289063 45.511719 7.050782 70.160156 2.339843 32.789063 3.597656 67.621094 3.597656 103.710938zm0 0" fill="#ac5e33"/><path d="m292.148438 149c-1.730469-23.445312-4.011719-45.835938-6.800782-66.871094h-89.5625c-2.789062 21.035156-5.066406 43.425782-6.800781 66.871094zm0 0" fill="#9e552e"/><path d="m279.164062 470c3.652344-20.515625 6.792969-42.789062 9.34375-66.5h-95.878906c2.546875 23.710938 5.691406 45.984375 9.339844 66.5zm0 0" fill="#9e552e"/><path d="m452.738281 130.503906h-424.34375c-8.550781 0-14.617187-8.339844-11.988281-16.472656l14.535156-44.972656c1.679688-5.199219 6.523438-8.722656 11.988282-8.722656h395.273437c5.46875 0 10.308594 3.523437 11.988281 8.722656l14.535156 44.972656c2.628907 8.132812-3.4375 16.472656-11.988281 16.472656zm0 0" fill="#898383"/><path d="m452.734375 130.496094h-30.238281c8.554687 0 14.628906-8.328125 11.996094-16.464844l-14.539063-44.976562c-1.675781-5.191407-6.511719-8.71875-11.980469-8.71875h30.238282c5.464843 0 10.304687 3.527343 11.980468 8.71875l14.535156 44.976562c2.632813 8.136719-3.4375 16.464844-11.992187 16.464844zm0 0" fill="#756f6f"/><path d="m28.394531 381.496094h424.34375c8.550781 0 14.617188 8.339844 11.988281 16.476562l-14.535156 44.96875c-1.679687 5.199219-6.519531 8.722656-11.988281 8.722656h-395.273437c-5.464844 0-10.308594-3.523437-11.988282-8.722656l-14.535156-44.96875c-2.628906-8.136718 3.4375-16.476562 11.988281-16.476562zm0 0" fill="#898383"/><path d="m464.726562 397.96875-14.539062 44.976562c-1.675781 5.191407-6.511719 8.71875-11.980469 8.71875h-30.234375c5.46875 0 10.304688-3.527343 11.980469-8.71875l14.539063-44.976562c2.632812-8.136719-3.441407-16.464844-11.996094-16.464844h30.238281c8.554687 0 14.625 8.328125 11.992187 16.464844zm0 0" fill="#756f6f"/><path d="m466.644531 379.570312c9.609375-39.519531 14.488281-81.082031 14.488281-123.570312 0-20.929688-1.210937-41.953125-3.601562-62.492188-.480469-4.113281-4.222656-7.0625-8.316406-6.582031-4.113282.476563-7.0625 4.203125-6.582032 8.316407 2.324219 19.964843 3.503907 40.40625 3.503907 60.757812 0 40.566406-4.578125 80.242188-13.585938 117.996094h-15.953125c-4.140625 0-7.5 3.359375-7.5 7.5 0 4.144531 3.359375 7.5 7.5 7.5h16.140625c1.652344 0 3.152344.765625 4.125 2.097656.96875 1.335938 1.234375 3 .726563 4.570312l-14.53125 44.96875c-.683594 2.109376-2.632813 3.53125-4.851563 3.53125h-395.277343c-2.21875 0-4.167969-1.421874-4.851563-3.53125l-14.535156-44.96875c-.507813-1.570312-.242188-3.234374.730469-4.570312.96875-1.332031 2.472656-2.097656 4.121093-2.097656h372.808594c4.144531 0 7.5-3.355469 7.5-7.5 0-4.140625-3.355469-7.5-7.5-7.5h-8.820313c8.734376-37.847656 13.164063-77.503906 13.164063-117.996094 0-40.5-4.429687-80.152344-13.164063-118h60.15625c1.804688 7.570312 3.453126 15.277344 4.898438 22.988281.675781 3.605469 3.824219 6.121094 7.363281 6.121094.457031 0 .921875-.042969 1.386719-.128906 4.074219-.761719 6.753906-4.683594 5.992188-8.753907-1.621094-8.660156-3.496094-17.304687-5.554688-25.78125.855469-.824218 1.644531-1.730468 2.363281-2.714843 3.824219-5.257813 4.875-11.820313 2.875-18.007813l-14.535156-44.96875c-2.566406-7.949218-9.695313-13.394531-17.949219-13.871094-6.980468-15.316406-14.796875-29.933593-23.265625-43.453124-3.699219-5.90625-10.066406-9.429688-17.042969-9.429688h-317.007812c-6.972656 0-13.34375 3.523438-17.042969 9.429688-8.46875 13.523437-16.289062 28.140624-23.265625 43.453124-8.253906.476563-15.382812 5.921876-17.949218 13.871094l-14.535157 44.96875c-2 6.1875-.953125 12.75 2.875 18.007813.714844.980469 1.5 1.882812 2.351563 2.703125-9.609375 39.515625-14.496094 81.0625-14.496094 123.566406s4.886719 84.050781 14.496094 123.566406c-.851563.820313-1.636719 1.722656-2.351563 2.703125-3.824219 5.257813-4.871093 11.820313-2.875 18.007813l14.535157 44.96875c2.570312 7.949218 9.695312 13.394531 17.953124 13.871094 6.976563 15.3125 14.792969 29.925781 23.265626 43.453124 3.695312 5.90625 10.066406 9.429688 17.039062 9.429688h317.007812c6.976563 0 13.34375-3.523438 17.042969-9.429688 8.472657-13.523437 16.289063-28.140624 23.269531-43.453124 8.253907-.476563 15.378907-5.921876 17.945313-13.871094l14.535156-44.96875c2-6.1875.953125-12.75-2.875-18.007813-.710937-.980469-1.496093-1.878906-2.34375-2.699219zm-438.066406-241.566406h60.183594c-8.738281 37.847656-13.171875 77.507813-13.171875 117.996094 0 40.492188 4.429687 80.152344 13.164062 117.996094h-60.175781c-9.003906-37.75-13.578125-77.410156-13.578125-117.996094s4.574219-80.246094 13.578125-117.996094zm164.058594 117.996094c0-40.546875 1.601562-80.214844 4.742187-117.996094h86.375c3.140625 37.785156 4.746094 77.453125 4.746094 117.996094s-1.609375 80.203125-4.746094 117.996094h-86.371094c-3.140624-37.789063-4.746093-77.445313-4.746093-117.996094zm197.910156 0c0 40.566406-4.578125 80.242188-13.585937 117.996094h-78.160157c3.105469-37.832032 4.699219-77.480469 4.699219-117.996094 0-40.511719-1.589844-80.171875-4.695312-117.996094h78.15625c9.007812 37.75 13.585937 77.421875 13.585937 117.996094zm12.851563-238.609375c6.960937 11.109375 13.464843 23.007813 19.402343 35.445313h-59.03125c-6.027343-13.222657-12.667969-25.898438-19.835937-37.835938h55.136718c1.773438 0 3.394532.894531 4.328126 2.390625zm-114.773438 35.445313c-2.15625-13.25-4.535156-25.925782-7.097656-37.835938h44.753906c7.546875 11.824219 14.570312 24.503906 20.941406 37.835938zm-22.441406-37.835938c2.613281 11.851562 5.039062 24.535156 7.246094 37.835938h-65.726563c2.203125-13.300782 4.632813-25.980469 7.246094-37.835938zm-66.578125 0c-2.5625 11.914062-4.941407 24.589844-7.09375 37.835938h-58.597657c6.371094-13.332032 13.390626-26.011719 20.941407-37.835938zm-121.871094 2.390625c.9375-1.496094 2.554687-2.390625 4.328125-2.390625h55.136719c-7.164063 11.9375-13.808594 24.613281-19.835938 37.835938h-59.035156c5.941406-12.433594 12.445313-24.332032 19.40625-35.445313zm-54.191406 98.945313 14.535156-44.96875c.683594-2.113282 2.632813-3.53125 4.851563-3.53125h395.277343c2.21875 0 4.167969 1.417968 4.851563 3.53125l14.53125 44.96875c.507812 1.570312.242187 3.234374-.726563 4.566406-.972656 1.335937-2.472656 2.101562-4.125 2.101562h-292.140625c-4.140625 0-7.5 3.355469-7.5 7.5 0 4.140625 3.359375 7.5 7.5 7.5h21.734375c-3.105469 37.824219-4.695312 77.480469-4.695312 117.996094 0 40.519531 1.589843 80.167969 4.699219 117.996094h-78.164063c-9.003906-37.753906-13.582031-77.429688-13.582031-117.996094 0-40.558594 4.574218-80.242188 13.582031-117.996094h21.03125c4.140625 0 7.5-3.359375 7.5-7.5 0-4.144531-3.359375-7.5-7.5-7.5h-96.808594c-1.648437 0-3.152343-.765625-4.121093-2.101562-.972657-1.332032-1.238282-2.996094-.730469-4.566406zm257.984375 380.664062c2.5625-11.914062 4.941406-24.585938 7.097656-37.835938h58.589844c-6.371094 13.332032-13.386719 26.011719-20.9375 37.835938zm-126.675782 0c-7.546874-11.828125-14.578124-24.507812-20.945312-37.835938h58.605469c2.15625 13.253907 4.53125 25.925782 7.09375 37.835938zm-77.117187-2.390625c-6.960937-11.113281-13.460937-23.011719-19.40625-35.445313h59.03125c.019531.042969.03125.085938.050781.125 6.011719 13.175782 12.640625 25.808594 19.785156 37.710938h-55.132812c-1.773438 0-3.390625-.894531-4.328125-2.390625zm137.214844 2.390625c-2.613281-11.851562-5.039063-24.535156-7.242188-37.835938h65.722657c-2.207032 13.300782-4.632813 25.980469-7.246094 37.835938zm188.449219-2.390625c-.9375 1.496094-2.554688 2.390625-4.328126 2.390625h-55.136718c7.164062-11.933594 13.800781-24.609375 19.832031-37.835938h59.039063c-5.941407 12.433594-12.445313 24.332032-19.40625 35.445313zm0 0"/><path d="m99.394531 416.507812v.144532c0 4.144531 3.359375 7.5 7.5 7.5s7.5-3.355469 7.5-7.5v-.144532c0-4.140624-3.359375-7.5-7.5-7.5s-7.5 3.359376-7.5 7.5zm0 0"/><path d="m233.066406 416.507812v.144532c0 4.144531 3.359375 7.5 7.5 7.5 4.144532 0 7.5-3.355469 7.5-7.5v-.144532c0-4.140624-3.355468-7.5-7.5-7.5-4.140625 0-7.5 3.359376-7.5 7.5zm0 0"/><path d="m366.742188 416.507812v.144532c0 4.144531 3.355468 7.5 7.5 7.5 4.140624 0 7.5-3.355469 7.5-7.5v-.144532c0-4.140624-3.359376-7.5-7.5-7.5-4.144532 0-7.5 3.359376-7.5 7.5zm0 0"/><path d="m106.894531 102.703125c4.140625 0 7.5-3.355469 7.5-7.5v-.144531c0-4.144532-3.359375-7.5-7.5-7.5s-7.5 3.355468-7.5 7.5v.144531c0 4.144531 3.359375 7.5 7.5 7.5zm0 0"/><path d="m240.566406 102.703125c4.144532 0 7.5-3.355469 7.5-7.5v-.144531c0-4.144532-3.355468-7.5-7.5-7.5-4.140625 0-7.5 3.355468-7.5 7.5v.144531c0 4.144531 3.359375 7.5 7.5 7.5zm0 0"/><path d="m374.242188 102.703125c4.140624 0 7.5-3.355469 7.5-7.5v-.144531c0-4.144532-3.359376-7.5-7.5-7.5-4.144532 0-7.5 3.355468-7.5 7.5v.144531c0 4.144531 3.355468 7.5 7.5 7.5zm0 0"/></svg>