<?xml version="1.0" encoding="iso-8859-1"?>
<!-- Generator: Adobe Illustrator 19.0.0, SVG Export Plug-In . SVG Version: 6.00 Build 0)  -->
<svg version="1.1" id="Capa_1" xmlns="http://www.w3.org/2000/svg" xmlns:xlink="http://www.w3.org/1999/xlink" x="0px" y="0px"
	 viewBox="0 0 512 512" style="enable-background:new 0 0 512 512;" xml:space="preserve">
<path style="fill:#C6C5CA;" d="M256,8.271L65.374,100v139.792c0,117.278,75.124,222.25,188.508,263.403l2.118,0.769l2.119-0.769
	c113.384-41.154,188.508-146.125,188.508-263.403V100L256,8.271z"/>
<g>
	<polygon style="fill:#898890;" points="278.404,241.011 278.404,53.907 429.044,128.746 429.044,241.011 	"/>
	<path style="fill:#898890;" d="M278.404,241.011v217.318c90.606-33.953,150.639-120.559,150.639-217.318L278.404,241.011
		L278.404,241.011z"/>
	<path style="fill:#898890;" d="M108.243,239.792V100l169.193-81.416L256,8.271L65.374,100v139.792
		c0,117.278,75.124,222.25,188.508,263.403l2.118,0.769l2.119-0.769c6.572-2.386,13.009-4.994,19.317-7.798
		C174.918,449.823,108.243,350.273,108.243,239.792z"/>
</g>
<polygon style="fill:#FF7956;" points="256,53.907 105.362,128.746 105.362,241.011 256.001,241.011 "/>
<polygon style="fill:#57A4FF;" points="256,241.011 256,53.907 406.639,128.746 406.639,241.011 "/>
<path style="fill:#FF7956;" d="M256,241.011v217.318c90.606-33.953,150.639-120.559,150.639-217.318L256,241.011L256,241.011z"/>
<polygon style="fill:#006DF0;" points="256,53.907 256,241.011 290.809,241.011 290.809,71.2 "/>
<path style="fill:#FF3F62;" d="M290.809,241.011H256v217.318c12.182-4.565,23.805-10.089,34.809-16.455
	C290.809,391.222,290.809,241.011,290.809,241.011z"/>
<path style="fill:#57A4FF;" d="M256,241.011v217.318l0,0l0,0c-90.606-33.953-150.639-120.559-150.639-217.318L256,241.011
	L256,241.011z"/>
<polygon style="fill:#FF3F62;" points="256,72.194 256,53.907 105.362,128.746 105.362,241.011 142.172,241.011 142.172,128.746 "/>
<path style="fill:#006DF0;" d="M142.172,241.011h-36.81c0,96.759,60.032,183.364,150.639,217.318l0,0l0,0c0,0,0-6.652,0-17.619
	C186.305,399.464,142.172,323.972,142.172,241.011z"/>
<g>
	
		<rect x="381.05" y="88.333" transform="matrix(-0.8973 -0.4414 0.4414 -0.8973 694.9007 353.337)" style="fill:#FFFFFF;" width="15.003" height="15.003"/>
	
		<rect x="358.615" y="77.293" transform="matrix(-0.8973 -0.4414 0.4414 -0.8973 657.2075 322.4868)" style="fill:#FFFFFF;" width="15.003" height="15.003"/>
	
		<rect x="313.172" y="29.268" transform="matrix(0.4414 -0.8973 0.8973 0.4414 123.1169 322.6114)" style="fill:#FFFFFF;" width="15.003" height="66.305"/>
	<path style="fill:#FFFFFF;" d="M357.574,307.245l14.107,5.106c1.758-4.86,3.355-9.846,4.745-14.82l-14.45-4.038
		C360.688,298.11,359.207,302.736,357.574,307.245z"/>
	<path style="fill:#FFFFFF;" d="M334.471,351.909c-14.232,20.531-31.928,37.858-52.596,51.5l8.266,12.522
		c22.271-14.7,41.335-33.364,56.661-55.474c8.369-12.074,15.47-25.007,21.106-38.44l-13.835-5.805
		C348.84,328.681,342.245,340.692,334.471,351.909z"/>
	<path style="fill:#FFFFFF;" d="M364.336,284.161l14.635,3.311c1.14-5.04,2.104-10.186,2.865-15.294l-14.84-2.212
		C366.289,274.708,365.395,279.483,364.336,284.161z"/>
	<rect x="278.507" y="199.558" style="fill:#FFFFFF;" width="15.004" height="15.004"/>
	<rect x="278.507" y="96.513" style="fill:#FFFFFF;" width="15.004" height="68.036"/>
	<rect x="278.507" y="174.552" style="fill:#FFFFFF;" width="15.004" height="15.004"/>
</g>
<g>
	<rect x="165.3" y="265.524" style="fill:#1D1D1F;" width="15.004" height="15.004"/>
	<rect x="190.306" y="265.524" style="fill:#1D1D1F;" width="15.004" height="15.004"/>
	<rect x="215.312" y="265.524" style="fill:#1D1D1F;" width="15.004" height="15.004"/>
	<path style="fill:#1D1D1F;" d="M256,0L57.871,95.34v144.507c0,59.118,18.374,116.042,53.137,164.615
		c34.731,48.531,83.251,85.129,140.314,105.84L256,512l4.677-1.698c57.064-20.711,105.584-57.31,140.315-105.84
		c34.762-48.574,53.137-105.496,53.137-164.615V95.34L256,0z M439.126,239.847c0,110.72-70.231,211.47-175.623,253.32v-14.779
		h-15.004v14.779c-105.393-41.85-175.624-142.6-175.624-253.32V104.771l175.623-84.51v14.859h15.004V20.26l175.623,84.51v135.076
		H439.126z"/>
	<path style="fill:#1D1D1F;" d="M136.574,380.061l-12.407,8.437c21.019,30.908,47.823,56.572,79.668,76.274l7.895-12.759
		C181.687,433.425,156.4,409.217,136.574,380.061z"/>
	
		<rect x="156.881" y="96.106" transform="matrix(-0.4449 -0.8956 0.8956 -0.4449 121.5645 334.2883)" style="fill:#1D1D1F;" width="15.004" height="66.727"/>
	<path style="fill:#1D1D1F;" d="M97.86,124.152v116.914c0,49.01,14.758,96.205,42.678,136.485s66.936,70.66,112.83,87.858
		l2.633,0.986l2.633-0.986c45.894-17.198,84.909-47.578,112.83-87.858c27.921-40.28,42.678-87.475,42.678-136.485V124.152
		L256,45.585L97.86,124.152z M399.137,241.066c0,92.172-57.4,175.914-143.137,209.287
		c-85.738-33.373-143.137-117.115-143.137-209.287V133.45L256,62.337l143.137,71.113V241.066z"/>
	<rect x="248.5" y="73.966" style="fill:#1D1D1F;" width="15.004" height="364.408"/>
	<rect x="276.007" y="233.566" style="fill:#1D1D1F;" width="110.627" height="15.004"/>
	<rect x="125.371" y="233.566" style="fill:#1D1D1F;" width="110.627" height="15.004"/>
</g>
<g>
</g>
<g>
</g>
<g>
</g>
<g>
</g>
<g>
</g>
<g>
</g>
<g>
</g>
<g>
</g>
<g>
</g>
<g>
</g>
<g>
</g>
<g>
</g>
<g>
</g>
<g>
</g>
<g>
</g>
</svg>
