<?xml version="1.0" encoding="iso-8859-1"?>
<!-- Generator: Adobe Illustrator 19.0.0, SVG Export Plug-In . SVG Version: 6.00 Build 0)  -->
<svg version="1.1" id="Capa_1" xmlns="http://www.w3.org/2000/svg" xmlns:xlink="http://www.w3.org/1999/xlink" x="0px" y="0px"
	 viewBox="0 0 512 512" style="enable-background:new 0 0 512 512;" xml:space="preserve">
<polygon style="fill:#C6C5CA;" points="385.363,495.768 385.371,286.088 347.764,248.48 45.107,248.48 7.5,286.088 7.5,495.768 "/>
<g>
	<rect x="311.94" y="248.48" style="fill:#898890;" width="38.565" height="247.29"/>
	<polygon style="fill:#898890;" points="80.823,248.48 45.107,248.48 7.5,286.088 7.5,495.768 43.216,495.768 43.216,286.088 	"/>
</g>
<path style="fill:#C6C5CA;" d="M302.559,248.48H90.312V122.358c0-58.61,47.513-106.124,106.124-106.124l0,0
	c58.61,0,106.124,47.513,106.124,106.124V248.48H302.559z"/>
<path style="fill:#898890;" d="M220.771,19.042c-7.815-1.834-15.961-2.807-24.335-2.807l0,0
	c-58.61,0-106.124,47.513-106.124,106.123V248.48h48.671V122.358C138.983,72.121,173.89,30.042,220.771,19.042z"/>
<rect x="78.968" y="248.48" style="fill:#FFFFFF;" width="234.94" height="247.29"/>
<rect x="78.968" y="248.48" style="fill:#D8D7DA;" width="38.565" height="247.29"/>
<g>
	<rect x="125.03" y="123.751" style="fill:#898890;" width="46.517" height="25.499"/>
	<rect x="221.85" y="123.751" style="fill:#898890;" width="46.517" height="25.499"/>
	<path style="fill:#898890;" d="M82.196,248.48c12.354,51.645,58.81,90.041,114.24,90.041s101.886-38.396,114.24-90.041H82.196z"/>
</g>
<path style="fill:#57565C;" d="M128.335,248.48h-46.14c12.354,51.645,58.81,90.041,114.24,90.041c7.896,0,15.61-0.782,23.07-2.268
	C174.602,327.31,138.929,292.768,128.335,248.48z"/>
<g>
	<path style="fill:#898890;" d="M78.938,248.48H45.107L7.5,286.088v32.644C46.563,318.732,78.285,287.388,78.938,248.48z"/>
	<path style="fill:#898890;" d="M313.934,248.48h33.831l37.607,37.607v32.644C346.309,318.732,314.586,287.388,313.934,248.48z"/>
</g>
<g>
	<path style="fill:#57565C;" d="M35.716,286.088l37.607-37.607H45.107L7.5,286.088v32.644c10.025,0,19.559-2.076,28.216-5.803
		V286.088z"/>
	<path style="fill:#57565C;" d="M342.149,248.48h-28.216c0.652,38.907,32.375,70.251,71.438,70.251v-5.803
		C360.295,302.135,342.634,277.404,342.149,248.48z"/>
</g>
<g>
	<rect x="7.5" y="410.271" style="fill:#898890;" width="71.47" height="85.5"/>
	<rect x="313.9" y="410.271" style="fill:#898890;" width="71.47" height="85.5"/>
</g>
<g>
	<rect x="7.5" y="410.271" style="fill:#57565C;" width="32.17" height="85.5"/>
	<rect x="313.9" y="410.271" style="fill:#57565C;" width="32.17" height="85.5"/>
</g>
<polygon style="fill:#FF7956;" points="252.967,396.877 209.636,403.318 216.077,359.987 176.795,359.987 183.235,403.317 
	139.904,396.877 139.904,436.159 183.236,429.718 176.795,473.049 216.077,473.049 209.636,429.718 252.967,436.159 "/>
<polygon style="fill:#C6C5CA;" points="444.933,112.743 421.569,136.107 421.569,374.693 468.297,374.693 468.297,136.107 "/>
<polygon style="fill:#898890;" points="453.683,121.493 444.933,112.743 421.569,136.107 421.569,374.693 439.07,374.693 
	439.07,136.107 "/>
<rect x="385.37" y="374.69" style="fill:#FFE477;" width="119.14" height="28.2"/>
<g>
	<rect x="385.37" y="374.69" style="fill:#FFB655;" width="28.2" height="28.2"/>
	<rect x="425.63" y="402.891" style="fill:#FFB655;" width="38.603" height="92.87"/>
</g>
<rect x="425.63" y="402.891" style="fill:#FF7956;" width="19.301" height="92.87"/>
<g>
	<rect x="330.69" y="377.581" style="fill:#1D1D1F;" width="15" height="15"/>
	<rect x="330.69" y="327.581" style="fill:#1D1D1F;" width="15" height="15"/>
	<rect x="330.69" y="352.581" style="fill:#1D1D1F;" width="15" height="15"/>
	<rect x="242.15" y="184.271" style="fill:#1D1D1F;" width="15" height="15"/>
	<rect x="267.15" y="184.271" style="fill:#1D1D1F;" width="15" height="15"/>
	<rect x="217.15" y="184.271" style="fill:#1D1D1F;" width="15" height="15"/>
	<rect x="160.42" y="184.271" style="fill:#1D1D1F;" width="15" height="15"/>
	<rect x="135.42" y="184.271" style="fill:#1D1D1F;" width="15" height="15"/>
	<rect x="110.42" y="184.271" style="fill:#1D1D1F;" width="15" height="15"/>
	<rect x="242.15" y="212.62" style="fill:#1D1D1F;" width="15" height="15"/>
	<rect x="267.15" y="212.62" style="fill:#1D1D1F;" width="15" height="15"/>
	<rect x="217.15" y="212.62" style="fill:#1D1D1F;" width="15" height="15"/>
	<rect x="163.36" y="262.271" style="fill:#1D1D1F;" width="15" height="15"/>
	<rect x="113.36" y="262.271" style="fill:#1D1D1F;" width="15" height="15"/>
	<rect x="138.36" y="262.271" style="fill:#1D1D1F;" width="15" height="15"/>
	<rect x="160.42" y="212.62" style="fill:#1D1D1F;" width="15" height="15"/>
	<rect x="135.42" y="212.62" style="fill:#1D1D1F;" width="15" height="15"/>
	<rect x="110.42" y="212.62" style="fill:#1D1D1F;" width="15" height="15"/>
	<rect x="271.95" y="398.471" style="fill:#1D1D1F;" width="15" height="65.33"/>
	<rect x="271.95" y="348.471" style="fill:#1D1D1F;" width="15" height="15"/>
	<rect x="271.95" y="373.471" style="fill:#1D1D1F;" width="15" height="15"/>
	<rect x="47.27" y="351.041" style="fill:#1D1D1F;" width="15" height="15"/>
	<rect x="47.27" y="376.041" style="fill:#1D1D1F;" width="15" height="19"/>
	<rect x="47.27" y="326.041" style="fill:#1D1D1F;" width="15" height="15"/>
</g>
<g>
	<path style="fill:#FFFFFF;" d="M224.861,54.984c4.161,1.764,8.186,3.931,11.96,6.442l8.309-12.488
		c-4.548-3.026-9.398-5.639-14.415-7.765L224.861,54.984z"/>
	<path style="fill:#FFFFFF;" d="M253.828,55.532l-9.779,11.373c3.436,2.955,6.614,6.243,9.448,9.775l11.699-9.387
		C261.787,63.044,257.963,59.087,253.828,55.532z"/>
	<path style="fill:#FFFFFF;" d="M281.802,100.443c-2.193-8.542-5.662-16.694-10.31-24.229l-12.768,7.875
		c3.854,6.248,6.73,13.006,8.548,20.084L281.802,100.443z"/>
</g>
<g>
	<path style="fill:#1D1D1F;" d="M179.051,116.255h-61.518v40.498h61.518V116.255z M164.051,141.753h-31.518v-10.498h31.518V141.753z
		"/>
	<path style="fill:#1D1D1F;" d="M275.865,116.255h-61.518v40.498h61.518V116.255z M260.865,141.753h-31.518v-10.498h31.518V141.753z
		"/>
</g>
<g>
	<path style="fill:#FFFFFF;" d="M230.884,312.257l-5.756-13.852c-4.187,1.739-8.556,3.101-12.988,4.047l3.131,14.67
		C220.599,315.984,225.852,314.347,230.884,312.257z"/>
	<path style="fill:#FFFFFF;" d="M254.107,298.148l-9.635-11.496c-3.481,2.917-7.245,5.529-11.188,7.765l7.398,13.049
		C245.415,304.783,249.931,301.648,254.107,298.148z"/>
	<path style="fill:#FFFFFF;" d="M277.069,268.916l-13.455-6.631c-3.262,6.619-7.481,12.716-12.542,18.12l10.949,10.252
		C268.092,284.175,273.154,276.859,277.069,268.916z"/>
</g>
<g>
	<path style="fill:#1D1D1F;" d="M224.774,352.485h-56.677l6.231,41.925l-41.925-6.231v56.677l41.925-6.231l-6.231,41.925h56.677
		l-6.232-41.926l41.925,6.232V388.18l-41.924,6.232L224.774,352.485z M245.467,405.573v21.888l-44.737-6.65l6.65,44.738h-21.888
		l6.649-44.737l-44.737,6.649v-21.888l44.737,6.649l-6.649-44.737h21.888l-6.649,44.738L245.467,405.573z"/>
	<path style="fill:#1D1D1F;" d="M203.933,240.98V24.017c50.893,3.843,91.127,46.481,91.127,98.34V228.48h15V122.357
		c0-62.652-50.972-113.623-113.624-113.623S82.813,59.705,82.813,122.357V228.48h15V122.357c0-51.857,40.231-94.493,91.12-98.34
		V240.98H42.001L0,282.981v220.286h392.871l0,0l0,0V282.981l0,0l0,0l-42-42L203.933,240.98L203.933,240.98z M188.936,255.98v46.286
		h15V255.98h96.811c-14.836,44.632-56.45,75.041-104.311,75.041c-47.859,0-89.474-30.409-104.311-75.041H188.936z M15,289.193
		l33.214-33.213h22.637C66.893,284.61,43.709,307.372,15,310.789V289.193z M15,325.875c18.039-1.693,34.822-9.47,47.885-22.335
		c3.168-3.12,6.021-6.474,8.584-10.005v109.232H15V325.875z M57.167,488.268v-44h-15v44H15v-70.5h56.469v70.5H57.167z
		 M86.469,488.268v-41.396l22.228,22.227l10.607-10.607l-32.835-32.834V280.346c7.955,14.707,18.827,27.843,32.011,38.381
		c22.022,17.602,49.707,27.295,77.956,27.295s55.935-9.693,77.957-27.295c13.184-10.538,24.056-23.674,32.011-38.382v207.922
		L86.469,488.268L86.469,488.268z M321.403,488.268v-70.5h56.463v14h-28.228v15h28.227l-0.002,41.5H321.403z M321.403,402.768
		v-109.23c2.563,3.531,5.416,6.885,8.583,10.004c13.063,12.865,29.845,20.642,47.883,22.335l-0.003,76.891L321.403,402.768
		L321.403,402.768z M377.87,310.789c-28.709-3.417-51.892-26.178-55.85-54.807h22.638l33.213,33.213L377.87,310.789z"/>
	<path style="fill:#1D1D1F;" d="M512,367.193h-36.203V133.001l-30.864-30.864l-30.865,30.864v234.193h-8.703v15H497v13.2h-91.635v15
		h12.767v92.873h53.603v-92.873H512V367.193z M452.433,367.193V152.157h-15v215.037h-8.364v-227.98l15.864-15.864l15.864,15.864
		v227.98H452.433z M433.132,456.807h23.603v8.707h-23.603V456.807z M433.132,441.807v-8.706h23.603v8.706H433.132z M433.132,488.268
		v-7.753h23.603v7.753H433.132z M456.734,418.102h-23.603v-7.707h23.603V418.102z"/>
</g>
<g>
</g>
<g>
</g>
<g>
</g>
<g>
</g>
<g>
</g>
<g>
</g>
<g>
</g>
<g>
</g>
<g>
</g>
<g>
</g>
<g>
</g>
<g>
</g>
<g>
</g>
<g>
</g>
<g>
</g>
</svg>
