<?xml version="1.0" encoding="iso-8859-1"?>
<!-- Generator: Adobe Illustrator 19.0.0, SVG Export Plug-In . SVG Version: 6.00 Build 0)  -->
<svg version="1.1" id="Capa_1" xmlns="http://www.w3.org/2000/svg" xmlns:xlink="http://www.w3.org/1999/xlink" x="0px" y="0px"
	 viewBox="0 0 512.002 512.002" style="enable-background:new 0 0 512.002 512.002;" xml:space="preserve">
<polygon style="fill:#FFB655;" points="36.676,502.97 9.177,475.471 267.533,216.829 295.032,244.328 "/>
<polygon style="fill:#FF7956;" points="30.616,475.471 278.257,227.554 267.533,216.829 9.177,475.471 36.676,502.97 
	47.389,492.245 "/>
<rect x="326.426" y="93.446" transform="matrix(-0.7071 -0.7071 0.7071 -0.7071 485.8152 522.6376)" style="fill:#C6C5CA;" width="49.448" height="134.514"/>
<g>
	<polygon style="fill:#898890;" points="315.949,190.782 396.148,110.584 381.228,95.665 286.11,190.782 321.078,225.751 
		335.997,210.831 	"/>
	
		<rect x="392.437" y="89.872" transform="matrix(-0.7071 -0.7071 0.7071 -0.7071 623.9037 465.4326)" style="fill:#898890;" width="31.819" height="27.259"/>
</g>
<g>
	<path style="fill:#C6C5CA;" d="M346.432,35.35l0.941-0.941c-33.833-33.833-88.686-33.833-122.519,0s-33.833,88.686,0,122.519l0,0
		c20.746-20.746,54.382-20.746,75.127,0l9.992,9.992l46.45-46.45l-9.992-9.992C325.686,89.732,325.686,56.096,346.432,35.35z"/>
	<path style="fill:#C6C5CA;" d="M476.51,165.429l0.941-0.941c33.833,33.833,33.833,88.686,0,122.519s-88.686,33.833-122.519,0l0,0
		c20.746-20.746,20.746-54.382,0-75.127l-9.992-9.992l46.45-46.45l9.992,9.992C422.129,186.174,455.765,186.174,476.51,165.429z"/>
</g>
<g>
	<path style="fill:#898890;" d="M258.178,34.409c12.658-12.658,28.257-20.576,44.597-23.763
		c-27.337-5.332-56.746,2.588-77.921,23.763c-33.833,33.833-33.833,88.686,0,122.519l0,0c6.47-6.47,14.193-10.921,22.387-13.355
		C224.863,109.923,228.505,64.083,258.178,34.409z"/>
	<path style="fill:#898890;" d="M388.257,287.007L388.257,287.007c20.746-20.746,20.746-54.382,0-75.127l-9.992-9.992l30.39-30.39
		c-2.555-1.778-4.995-3.79-7.273-6.068l-9.992-9.992l-46.45,46.45l9.992,9.992c20.746,20.746,20.746,54.382,0,75.127l0,0
		c21.175,21.175,50.585,29.094,77.921,23.763C416.514,307.583,400.915,299.663,388.257,287.007z"/>
	<path style="fill:#898890;" d="M279.08,144.052c7.64,2.517,14.825,6.8,20.901,12.876l9.992,9.992l16.059-16.059
		C312.136,141.189,294.661,138.919,279.08,144.052z"/>
	
		<rect x="257.228" y="203.643" transform="matrix(-0.7071 -0.7071 0.7071 -0.7071 344.0587 581.3524)" style="fill:#898890;" width="70.407" height="31.554"/>
</g>
<polygon style="fill:#57565C;" points="279.08,205.686 290.046,194.719 278.7,183.374 256.389,205.686 306.174,255.471 
	317.52,244.126 "/>
<rect x="58.996" y="407.224" transform="matrix(-0.7071 -0.7071 0.7071 -0.7071 -172.7092 795.7034)" style="fill:#FFFFFF;" width="38.89" height="52.795"/>
<polygon style="fill:#D8D7DA;" points="69.411,438.538 95.052,412.897 83.359,401.206 46.027,438.538 73.527,466.038 
	85.219,454.346 "/>
<rect x="417.996" y="47.869" style="fill:#FF7956;" width="45.998" height="45.998"/>
<rect x="417.996" y="47.869" style="fill:#FF3F62;" width="21.499" height="45.998"/>
<g>
	<path style="fill:#FFFFFF;" d="M450.236,256.641c-8.657,8.657-20.191,13.424-32.479,13.424c-4.933,0-9.8-0.781-14.467-2.321
		l-4.701,14.243c6.186,2.042,12.635,3.077,19.167,3.077c16.294,0,31.596-6.328,43.084-17.817c2.279-2.279,4.388-4.75,6.268-7.342
		l-12.145-8.805C453.549,253.055,451.957,254.919,450.236,256.641z"/>
	<path style="fill:#FFFFFF;" d="M478.635,222.439c-0.162-5.717-1.118-11.37-2.844-16.8l-14.296,4.543
		c1.302,4.097,2.024,8.364,2.146,12.681L478.635,222.439z"/>
	<path style="fill:#FFFFFF;" d="M472.899,250.09c2.421-5.162,4.104-10.646,5.002-16.299l-14.813-2.353
		c-0.677,4.263-1.945,8.395-3.768,12.282L472.899,250.09z"/>
	
		<rect x="373.485" y="123.361" transform="matrix(-0.7071 -0.7071 0.7071 -0.7071 557.8488 492.7899)" style="fill:#FFFFFF;" width="14.999" height="14.999"/>
	
		<rect x="308.436" y="171.019" transform="matrix(-0.7071 0.7071 -0.7071 -0.7071 695.2619 69.051)" style="fill:#FFFFFF;" width="49.788" height="14.999"/>
	
		<rect x="355.817" y="141.04" transform="matrix(-0.7071 -0.7071 0.7071 -0.7071 515.1859 510.4771)" style="fill:#FFFFFF;" width="14.999" height="14.999"/>
</g>
<g>
	<path style="fill:#1D1D1F;" d="M244.61,51.015c-16.364,16.363-22.012,40.218-14.74,62.252l14.243-4.701
		c-5.486-16.622-1.231-34.611,11.104-46.945L244.61,51.015z"/>
	<path style="fill:#1D1D1F;" d="M277.165,251.601l-23.336,23.362l-8.469-8.469L234.755,277.1l8.475,8.475l-41.752,41.798l-8.83-8.83
		l-10.606,10.606l8.836,8.836l-78.448,78.535l-16.893-16.893l26.867-26.897l8.361,8.361l10.606-10.606l-8.366-8.366l127.275-127.416
		l-10.612-10.601L0.147,473.897l38.105,38.105l249.524-249.801L277.165,251.601z M66.281,428.915l16.88,16.88l-8.06,8.06
		l-16.875-16.876L66.281,428.915z M101.826,427.129l-8.06,8.06L76.88,418.302l8.056-8.065L101.826,427.129z M38.247,490.785
		l-16.893-16.893l26.271-26.3l16.892,16.893L38.247,490.785z"/>
	
		<rect x="378.533" y="184.932" transform="matrix(0.7071 0.7071 -0.7071 0.7071 249.1364 -216.6044)" style="fill:#1D1D1F;" width="14.999" height="14.999"/>
	
		<rect x="396.213" y="202.609" transform="matrix(0.7071 0.7071 -0.7071 0.7071 266.8136 -223.9284)" style="fill:#1D1D1F;" width="14.999" height="14.999"/>
	
		<rect x="413.875" y="220.292" transform="matrix(0.7071 0.7071 -0.7071 0.7071 284.4909 -231.2381)" style="fill:#1D1D1F;" width="14.999" height="14.999"/>
	<path style="fill:#1D1D1F;" d="M484.328,157.608l-5.303-5.303l-6.244,6.244c-16.478,16.478-42.595,17.926-60.75,3.369
		l-9.384,11.702c22.427,17.984,53.987,17.599,75.911-0.12c11.876,14.198,18.341,31.937,18.341,50.671
		c0,21.137-8.232,41.01-23.178,55.956c-29.186,29.187-75.685,30.764-106.743,4.735c16.901-21.873,16.996-52.794-0.705-74.868
		l-11.702,9.384c14.558,18.154,13.11,44.271-3.369,60.75l-5.304,5.303l5.304,5.303c18.351,18.351,42.457,27.527,66.563,27.527
		s48.211-9.176,66.562-27.527C521.031,254.03,521.031,194.311,484.328,157.608z"/>
	<path style="fill:#1D1D1F;" d="M428.375,129.055l-6.235-6.235l19.278-19.278l-3.753-3.753h35.398V38.792h-60.998v35.398
		l-3.753-3.753l-19.278,19.278L382.8,83.48l-49.269,49.269l-32.211-32.211l-10.606,10.606l32.211,32.211l-35.243,35.243
		l-7.409-7.409l-32.918,32.918l60.392,60.392l32.918-32.918l-7.409-7.409L428.375,129.055z M437.673,84.791l20.393-20.393v20.393
		H437.673z M447.459,53.792l-20.393,20.392V53.792H447.459z M408.314,91.65l11.894,11.894l-8.672,8.672l-11.894-11.894
		L408.314,91.65z M382.802,104.694l24.362,24.362l-84.512,84.512l-24.362-24.362L382.802,104.694z M307.748,243.288l-39.18-39.18
		l11.706-11.706l39.18,39.18L307.748,243.288z"/>
	<path style="fill:#1D1D1F;" d="M226.427,165.957l5.303-5.304c16.478-16.478,42.595-17.926,60.75-3.369l9.384-11.702
		c-22.073-17.701-52.996-17.605-74.868-0.705c-26.029-31.059-24.451-77.558,4.735-106.744C260.878,8.988,307.297,7.377,338.355,33.3
		c-17.715,21.923-18.1,53.483-0.118,75.908l11.702-9.384c-14.557-18.154-13.11-44.271,3.371-60.751l6.242-6.245l-5.302-5.302
		c-36.704-36.704-96.423-36.702-133.124,0c-36.703,36.703-36.703,96.423,0,133.125L226.427,165.957z"/>
</g>
<g>
</g>
<g>
</g>
<g>
</g>
<g>
</g>
<g>
</g>
<g>
</g>
<g>
</g>
<g>
</g>
<g>
</g>
<g>
</g>
<g>
</g>
<g>
</g>
<g>
</g>
<g>
</g>
<g>
</g>
</svg>
