<?xml version="1.0" encoding="iso-8859-1"?>
<!-- Generator: Adobe Illustrator 19.0.0, SVG Export Plug-In . SVG Version: 6.00 Build 0)  -->
<svg version="1.1" id="Capa_1" xmlns="http://www.w3.org/2000/svg" xmlns:xlink="http://www.w3.org/1999/xlink" x="0px" y="0px"
	 viewBox="0 0 511.999 511.999" style="enable-background:new 0 0 511.999 511.999;" xml:space="preserve">
<path style="fill:#FF7956;" d="M323.465,114.525c-24.393-48.261-63.511-101.814-63.511-101.814s-26.957,36.903-50.069,77.047
	l-32.522-32.522v114.148c0,41.651,30.839,76.085,70.926,81.754V202h23.333v51.138c40.084-5.672,70.92-40.103,70.92-81.753V95.448
	L323.465,114.525z"/>
<g>
	<path style="fill:#FF3F62;" d="M302.101,242.394v-40.392h-23.333v49.797C287.102,249.856,294.947,246.647,302.101,242.394z"/>
	<path style="fill:#FF3F62;" d="M240.363,89.759c12.017-20.872,25.064-40.853,34.829-55.242
		c-9.021-13.291-15.24-21.805-15.24-21.805s-18.939,25.93-38.677,57.96L240.363,89.759z"/>
	<path style="fill:#FF3F62;" d="M271.622,251.8v1.339c1.199-0.17,2.388-0.368,3.569-0.589
		C273.992,252.327,272.803,252.075,271.622,251.8z"/>
	<path style="fill:#FF3F62;" d="M207.841,171.386v-83.67l-30.478-30.478v114.148c0,41.651,30.839,76.085,70.926,81.754v-10.744
		C224.076,228.004,207.841,201.6,207.841,171.386z"/>
	<path style="fill:#FF3F62;" d="M278.767,125.802c0,0-34.345,47.016-34.345,65.984c0,14.872,9.457,27.525,22.682,32.301V202h23.333
		v22.084c13.222-4.777,22.675-17.429,22.675-32.298C313.112,172.819,278.767,125.802,278.767,125.802z"/>
</g>
<path style="fill:#898890;" d="M172.388,345.822v24.225c14.43,14.43,22.521,22.521,36.951,36.95h38.95v-61.175H172.388z"/>
<rect id="SVGCleanerId_0" x="172.388" y="253.977" style="fill:#898890;" width="75.902" height="37.169"/>
<g>
	<rect id="SVGCleanerId_0_1_" x="172.388" y="253.977" style="fill:#898890;" width="75.902" height="37.169"/>
</g>
<g>
	<rect x="271.626" y="253.977" style="fill:#898890;" width="75.902" height="37.169"/>
	<path style="fill:#898890;" d="M271.622,406.997h38.95c14.43-14.43,22.521-22.521,36.951-36.95v-24.225h-75.902v61.175H271.622z"/>
</g>
<g>
	<path style="fill:#57565C;" d="M202.863,370.047v-24.225h-30.476v24.225c14.43,14.43,22.521,22.521,36.951,36.95h30.475
		C225.383,392.568,217.293,384.477,202.863,370.047z"/>
	<rect x="172.388" y="253.977" style="fill:#57565C;" width="30.475" height="37.169"/>
	<rect x="271.626" y="253.977" style="fill:#57565C;" width="30.475" height="37.169"/>
	<rect x="271.626" y="345.825" style="fill:#57565C;" width="30.475" height="61.179"/>
</g>
<g>
	<rect x="248.287" y="201.997" style="fill:#C6C5CA;" width="23.333" height="227.887"/>
	<polygon style="fill:#C6C5CA;" points="172.388,415.963 149.055,429.886 149.055,202 172.388,215.924 	"/>
	<polygon style="fill:#C6C5CA;" points="370.85,429.886 347.517,415.963 347.517,215.924 370.85,202 	"/>
</g>
<polygon style="fill:#898890;" points="271.622,406.997 271.622,429.886 248.29,429.886 248.29,406.997 227.623,406.997 
	227.623,504.496 292.289,504.496 292.289,406.997 "/>
<g>
	<polygon style="fill:#57565C;" points="248.29,429.886 248.29,406.997 227.623,406.997 227.623,504.496 254.528,504.496 
		254.528,429.886 	"/>
	<rect x="275.196" y="406.994" style="fill:#57565C;" width="17.1" height="22.888"/>
</g>
<path style="fill:#FFE477;" d="M259.952,125.802c0,0-34.345,47.016-34.345,65.984c0,14.872,9.457,27.525,22.682,32.301V202h23.333
	v22.084c13.222-4.777,22.675-17.429,22.675-32.298C294.298,172.819,259.952,125.802,259.952,125.802z"/>
<g>
	<path style="fill:#FFB655;" d="M244.423,191.787c0-12.439,14.769-36.938,24.938-52.332c-5.338-8.081-9.407-13.652-9.407-13.652
		s-34.345,47.016-34.345,65.984c0,14.872,9.457,27.525,22.682,32.301v-16.486C245.826,202.868,244.423,197.494,244.423,191.787z"/>
	<path style="fill:#FFB655;" d="M290.437,202h-18.815v22.084c8.151-2.945,14.86-8.889,18.815-16.495V202z"/>
</g>
<g>
	<rect x="315.436" y="265.066" style="fill:#FFFFFF;" width="15" height="15"/>
	<rect x="290.436" y="265.066" style="fill:#FFFFFF;" width="15" height="15"/>
	<path style="fill:#FFFFFF;" d="M303.532,123.511c-3.114-6.161-6.706-12.809-10.676-19.757l-13.024,7.439
		c3.843,6.729,7.313,13.149,10.313,19.085L303.532,123.511z"/>
	<path style="fill:#FFFFFF;" d="M267.137,89.99c2.69,4.314,5.288,8.578,7.721,12.673l12.896-7.662
		c-2.488-4.187-5.142-8.543-7.889-12.948L267.137,89.99z"/>
	<path style="fill:#FFFFFF;" d="M253.706,69.158c2.785,4.188,5.522,8.38,8.136,12.457l12.629-8.094
		c-2.659-4.148-5.443-8.411-8.273-12.668L253.706,69.158z"/>
</g>
<g>
	<path style="fill:#1D1D1F;" d="M386.367,61.704c-2.712-4.478-5.689-8.867-8.849-13.046l-11.965,9.047
		c2.851,3.771,5.537,7.73,7.984,11.771L386.367,61.704z"/>
	<path style="fill:#1D1D1F;" d="M401.475,95.166l-14.314,4.482c4.137,13.213,6.234,26.929,6.233,40.766
		c0,6.225-0.431,12.527-1.282,18.733l14.861,2.037c0.942-6.88,1.42-13.867,1.42-20.771
		C408.395,125.055,406.067,109.83,401.475,95.166z"/>
	<path style="fill:#1D1D1F;" d="M391.5,70.878l-13.334,6.871c2.166,4.202,4.135,8.562,5.853,12.957l13.971-5.461
		C396.085,80.371,393.901,75.537,391.5,70.878z"/>
	<path style="fill:#1D1D1F;" d="M118.605,140.757c0-4.407,0.217-8.876,0.644-13.282l-14.93-1.449
		c-0.474,4.886-0.714,9.843-0.714,14.731l0.003,1.017l15-0.09L118.605,140.757z"/>
	<path style="fill:#1D1D1F;" d="M104.045,152.288c0.399,5.229,1.078,10.492,2.019,15.646l14.756-2.693
		c-0.847-4.642-1.458-9.383-1.818-14.093L104.045,152.288z"/>
	<path style="fill:#1D1D1F;" d="M120.63,117.217c3.523-20.41,11.335-39.256,23.217-56.017l-12.237-8.676
		c-13.187,18.602-21.854,39.508-25.763,62.151l-0.157,0.929l14.796,2.467L120.63,117.217z"/>
	<path style="fill:#1D1D1F;" d="M221.378,208.005l13.824-5.822c-1.389-3.299-2.094-6.796-2.094-10.393
		c0-10.241,14.644-35.064,26.846-52.963c12.202,17.894,26.844,42.711,26.844,52.963c0,3.594-0.703,7.087-2.088,10.381l13.826,5.816
		c2.165-5.146,3.262-10.595,3.262-16.197c0-20.384-29.813-62.228-35.789-70.408l-6.056-8.291l-6.056,8.291
		c-5.977,8.181-35.789,50.024-35.789,70.408C218.108,197.397,219.208,202.852,221.378,208.005z"/>
	<path style="fill:#1D1D1F;" d="M350.042,171.39V77.345l-24.648,24.647C300.976,56.31,266.379,8.798,266.009,8.291L259.952,0
		l-6.056,8.291c-0.253,0.346-23.757,32.607-45.577,69.3l-38.456-38.457V171.39c0,13.995,3.252,27.601,9.308,39.853l-37.616-22.448
		v254.304l38.332-22.875V212.649c5.25,10.169,12.45,19.366,21.349,27.017l9.779-11.373c-16.62-14.29-26.152-35.031-26.152-56.903
		V75.348l15.61,15.61c-4.72,8.328-8.967,16.265-12.646,23.639l13.422,6.697c3.027-6.068,6.46-12.543,10.24-19.321l0.013,0.013
		l4.883-8.481c16.129-28.015,34.34-54.702,43.568-67.856c11.878,16.935,38.648,56.313,56.818,92.264l4.673,9.245l13.599-13.6v57.832
		c0,21.873-9.532,42.613-26.152,56.903l9.779,11.373c8.898-7.651,16.097-16.847,21.348-27.016v207.574l38.332,22.874V188.795
		l-37.615,22.446C346.79,198.988,350.042,185.383,350.042,171.39z M164.888,411.708l-8.333,4.973V215.213l8.333,4.973
		L164.888,411.708L164.888,411.708z M355.017,220.186l8.333-4.974V416.68l-8.333-4.974V220.186z"/>
	<path style="fill:#1D1D1F;" d="M313.68,414.501l19.141-19.141l-10.606-10.607l-14.748,14.748h-28.345v-46.175h48.395v-15h-48.395
		v-39.675h53.401v-15h-53.401v-22.173h53.401v-15h-53.401v-51.975H240.79v51.975h-53.402v15h53.402v22.173h-53.402v15h53.402v39.675
		h-48.402v15h48.402v13.676h-27.952v15h27.952v17.5h-28.345l-14.755-14.755l-10.606,10.607l19.148,19.147h14.506l-0.35,51.249
		h-15.432v15h15.329l-0.214,31.25h79.768l-0.214-31.25h15.829v-15h-15.931l-0.35-51.249h14.507V414.501z M255.789,209.504h8.333
		V422.39h-8.333V209.504z M284.737,497h-49.563l0.111-16.25h49.341L284.737,497z M284.524,465.751h-49.135l0.351-51.249h5.051
		v22.889h38.332v-22.889h5.051L284.524,465.751z"/>
</g>
<g>
</g>
<g>
</g>
<g>
</g>
<g>
</g>
<g>
</g>
<g>
</g>
<g>
</g>
<g>
</g>
<g>
</g>
<g>
</g>
<g>
</g>
<g>
</g>
<g>
</g>
<g>
</g>
<g>
</g>
</svg>
