<svg id="Capa_1" enable-background="new 0 0 512 512" height="512" viewBox="0 0 512 512" width="512" xmlns="http://www.w3.org/2000/svg"><path d="m208 92.25h80v-48h-80l24 24z" fill="#e46a4a"/><path d="m272 44.25h16v48h-16z" fill="#c21d44"/><g fill="#92a2b5"><path d="m216 156.25c0 13.255-10.745 24-24 24s-24-10.745-24-24"/><path d="m264 156.25c0 13.255-10.745 24-24 24s-24-10.745-24-24"/><path d="m360 156.25c0 13.255-10.745 24-24 24s-24-10.745-24-24"/><path d="m408 156.25c0 13.255-10.745 24-24 24s-24-10.745-24-24"/><path d="m168 220.25c0 13.255-10.745 24-24 24s-24-10.745-24-24"/><path d="m216 220.25c0 13.255-10.745 24-24 24s-24-10.745-24-24"/><path d="m264 220.25c0 13.255-10.745 24-24 24s-24-10.745-24-24"/><path d="m360 220.25c0 13.255-10.745 24-24 24s-24-10.745-24-24"/><path d="m408 220.25c0 13.255-10.745 24-24 24s-24-10.745-24-24"/><path d="m456 220.25c0 13.255-10.745 24-24 24s-24-10.745-24-24"/></g><path d="m64 292.25h96v32h-96z" fill="#e4e8ed"/><path d="m136 292.25h24v32h-24z" fill="#92a2b5"/><path d="m392 292.25h96v64h-96z" fill="#e4e8ed"/><path d="m464 292.25h24v64h-24z" fill="#92a2b5"/><path d="m184 324.25h-80v96c0 35.346 28.654 64 64 64h256c17.673 0 32-14.327 32-32v-96h-.001-271.999z" fill="#b47e7f"/><path d="m454.99 460.25c-3.55 13.8-16.08 24-30.99 24h-256c-20.22 0-38.24-9.37-49.97-24z" fill="#814b4c"/><circle cx="224" cy="396.25" fill="#c4e5f9" r="16"/><circle cx="288" cy="396.25" fill="#c4e5f9" r="16"/><circle cx="352" cy="396.25" fill="#c4e5f9" r="16"/><path d="m248 436.75h16v15h-16z" fill="#fff"/><path d="m448.5 404.75h-24.5v15h24.5v17h-40.5v15h40.5v.5c0 13.509-10.99 24.5-24.5 24.5h-256c-31.154 0-56.5-25.346-56.5-56.5v-8.5h40.5v-15h-40.5v-17h24.5v-15h-24.5v-33h65v32h39.5v-15h-24.5v-32h-24v-32h-167.5v15h56.5v32h40v88.5c0 39.425 32.075 71.5 71.5 71.5h256c21.78 0 39.5-17.72 39.5-39.5v-72h-15zm-377-88v-17h81v17z"/><path d="m512 299.75v-15h-144v15h16.5v17h-16.5v15h16.5v17h-89v-121h9.909c3.374 13.759 15.806 24 30.591 24 9.607 0 18.217-4.328 24-11.131 5.783 6.803 14.393 11.131 24 11.131s18.217-4.328 24-11.131c5.783 6.803 14.393 11.131 24 11.131 14.785 0 27.216-10.241 30.591-24h9.409v-15h-176.5v-49h9.909c3.374 13.759 15.806 24 30.591 24 9.607 0 18.217-4.328 24-11.131 5.783 6.803 14.393 11.131 24 11.131 14.785 0 27.216-10.241 30.591-24h9.409v-15h-128.5v-128.5h-15v16.5h-90.606l31.5 31.5-31.5 31.5h90.606v49h-128.5v15h9.409c3.374 13.759 15.806 24 30.591 24 9.607 0 18.217-4.328 24-11.131 5.783 6.803 14.393 11.131 24 11.131 14.785 0 27.216-10.241 30.591-24h9.909v49h-176.5v15h9.409c3.374 13.759 15.806 24 30.591 24 9.607 0 18.217-4.328 24-11.131 5.783 6.803 14.393 11.131 24 11.131s18.217-4.328 24-11.131c5.783 6.803 14.393 11.131 24 11.131 14.785 0 27.216-10.241 30.591-24h9.909v121h-48.5v15h263.5v-32h16.5v-15h-16.5v-17zm-65.322-72c-2.737 5.334-8.283 9-14.678 9s-11.941-3.666-14.678-9zm-48 0c-2.737 5.334-8.283 9-14.678 9s-11.941-3.666-14.678-9zm-48 0c-2.737 5.334-8.283 9-14.678 9s-11.941-3.666-14.678-9zm48-64c-2.737 5.334-8.283 9-14.678 9s-11.941-3.666-14.678-9zm-48 0c-2.737 5.334-8.283 9-14.678 9s-11.941-3.666-14.678-9zm-158.678 9c-6.396 0-11.942-3.666-14.678-9h29.357c-2.737 5.334-8.283 9-14.679 9zm48 0c-6.396 0-11.942-3.666-14.678-9h29.357c-2.737 5.334-8.283 9-14.679 9zm-96 64c-6.396 0-11.942-3.666-14.678-9h29.357c-2.737 5.334-8.283 9-14.679 9zm48 0c-6.396 0-11.942-3.666-14.678-9h29.357c-2.737 5.334-8.283 9-14.679 9zm48 0c-6.396 0-11.942-3.666-14.678-9h29.357c-2.737 5.334-8.283 9-14.679 9zm40.5-152h-54.394l16.5-16.5-16.5-16.5h54.394zm200 264h-81v-17h81zm0-32h-81v-17h81z"/><path d="m200.5 396.25c0 12.958 10.542 23.5 23.5 23.5s23.5-10.542 23.5-23.5-10.542-23.5-23.5-23.5-23.5 10.542-23.5 23.5zm23.5-8.5c4.687 0 8.5 3.813 8.5 8.5s-3.813 8.5-8.5 8.5-8.5-3.813-8.5-8.5 3.813-8.5 8.5-8.5z"/><path d="m311.5 396.25c0-12.958-10.542-23.5-23.5-23.5s-23.5 10.542-23.5 23.5 10.542 23.5 23.5 23.5 23.5-10.542 23.5-23.5zm-23.5 8.5c-4.686 0-8.5-3.813-8.5-8.5s3.814-8.5 8.5-8.5 8.5 3.813 8.5 8.5-3.814 8.5-8.5 8.5z"/><path d="m375.5 396.25c0-12.958-10.542-23.5-23.5-23.5s-23.5 10.542-23.5 23.5 10.542 23.5 23.5 23.5 23.5-10.542 23.5-23.5zm-32 0c0-4.687 3.814-8.5 8.5-8.5s8.5 3.813 8.5 8.5-3.814 8.5-8.5 8.5-8.5-3.813-8.5-8.5z"/><path d="m280 436.75h16v15h-16z"/><path d="m312 436.75h16v15h-16z" fill="#fff"/></svg>