<?xml version="1.0" encoding="iso-8859-1"?>
<!-- Generator: Adobe Illustrator 19.0.0, SVG Export Plug-In . SVG Version: 6.00 Build 0)  -->
<svg version="1.1" id="Layer_1" xmlns="http://www.w3.org/2000/svg" xmlns:xlink="http://www.w3.org/1999/xlink" x="0px" y="0px"
	 viewBox="0 0 512 512" style="enable-background:new 0 0 512 512;" xml:space="preserve">
<path style="fill:#FCC062;" d="M266.777,28.209l53.447,164.49h172.571c11.003,0,15.537,14.11,6.595,20.519l-139.48,99.973
	l53.353,163.521c3.407,10.44-8.555,19.127-17.429,12.658l-139.82-101.928L116.179,488.868c-8.884,6.443-20.819-2.257-17.404-12.686
	l53.342-162.888L12.608,213.216c-8.938-6.412-4.402-20.517,6.598-20.517h172.595l53.447-164.49
	C248.635,17.781,263.389,17.781,266.777,28.209z"/>
<path style="fill:#FBB03B;" d="M256.012,387.443L116.178,488.868c-8.884,6.443-20.819-2.257-17.404-12.686l53.342-162.888
	L12.608,213.216c-8.938-6.412-4.402-20.517,6.598-20.517h172.595l53.447-164.49c3.389-10.428,18.142-10.428,21.531,0"/>
<path d="M402.5,499.461c-3.932,0-7.863-1.249-11.29-3.749L256,397.146L120.784,495.22c-6.852,4.97-15.701,4.96-22.542-0.026
	c-6.843-4.988-9.561-13.408-6.925-21.454l51.551-157.422L8.034,219.592c-6.895-4.947-9.672-13.363-7.074-21.442
	c2.598-8.078,9.76-13.299,18.246-13.299H186.1l51.685-159.068c2.614-8.045,9.769-13.244,18.228-13.244h0.001
	c8.459,0.001,15.613,5.199,18.227,13.244l51.685,159.067h166.868c8.487,0,15.65,5.221,18.247,13.302
	c2.597,8.081-0.183,16.498-7.081,21.442L369.151,316.22l51.571,158.057c2.628,8.054-0.104,16.476-6.958,21.454
	C410.341,498.218,406.42,499.46,402.5,499.461z M256.024,377.741l144.431,105.288c1.778,1.295,3.324,0.559,4.086,0.003
	c0.763-0.555,1.942-1.796,1.261-3.886l-55.136-168.985L494.816,206.84c1.79-1.284,1.572-2.985,1.283-3.885
	c-0.289-0.9-1.104-2.41-3.305-2.41H314.522L259.314,30.633c-0.678-2.087-2.359-2.399-3.302-2.399l0,0
	c-0.943,0-2.624,0.312-3.302,2.399l-55.207,169.912H19.206c-2.201,0-3.016,1.51-3.306,2.41c-0.289,0.9-0.507,2.601,1.282,3.885
	L161.363,310.27l-55.132,168.354c-0.683,2.088,0.493,3.331,1.254,3.887c0.763,0.557,2.306,1.295,4.084,0.005L256.024,377.741z"/>
<g>
	<rect x="296.983" y="208.993" style="fill:#FFFFFF;" width="103.581" height="15.694"/>
	<rect x="416.258" y="208.993" style="fill:#FFFFFF;" width="24.064" height="15.694"/>
</g>
<g>
</g>
<g>
</g>
<g>
</g>
<g>
</g>
<g>
</g>
<g>
</g>
<g>
</g>
<g>
</g>
<g>
</g>
<g>
</g>
<g>
</g>
<g>
</g>
<g>
</g>
<g>
</g>
<g>
</g>
</svg>
