<?xml version="1.0" encoding="utf-8"?>
<svg version="1.1" id="Capa_1" x="0px" y="0px" viewBox="0 0 512 512" style="enable-background:new 0 0 512 512;" xmlns="http://www.w3.org/2000/svg">
  <polygon style="fill:#FFB655;" points="37.944,495.568 10.604,468.228 289.647,188.9 316.987,216.24 "/>
  <polygon style="fill:#FF7956;" points="34.899,468.228 301.8,201.053 289.647,188.9 10.604,468.228 37.944,495.568 50.085,483.414 &#10;&#9;"/>
  <polygon style="fill:#FFFFFF;" points="72.757,460.756 45.405,433.427 93.557,385.226 120.909,412.554 "/>
  <polygon style="fill:#D8D7DA;" points="69.699,433.427 105.715,397.375 93.557,385.226 45.405,433.427 72.757,460.756 &#10;&#9;84.892,448.608 "/>
  <polygon style="fill:#FFB655;" points="430.669,102.407 403.306,75.091 384.094,94.255 411.457,121.573 "/>
  <g>
    <rect x="326.014" y="88.41" transform="matrix(-0.7071 -0.7071 0.7071 -0.7071 488.7014 512.9889)" style="fill:#C6C5CA;" width="49.161" height="133.742"/>
    <path style="fill:#C6C5CA;" d="M475.233,159.98l0.935-0.936c33.637,33.637,33.637,88.173,0,121.81s-88.173,33.637-121.81,0l0,0 c20.625-20.625,20.625-54.067,0-74.693l-9.934-9.934l46.181-46.181l9.934,9.934C421.166,180.606,454.608,180.606,475.233,159.98z"/>
  </g>
  <polygon style="fill:#FFB655;" points="81.332,102.407 108.694,75.091 127.907,94.255 100.543,121.573 "/>
  <g>
    <polygon style="fill:#FF9811;" points="401.928,94.255 412.22,83.989 403.306,75.091 384.094,94.255 411.457,121.573 &#10;&#9;&#9;420.377,112.673 &#9;"/>
    <polygon style="fill:#FF9811;" points="99.165,102.407 117.615,83.989 108.694,75.091 81.332,102.407 100.543,121.573 &#10;&#9;&#9;109.457,112.673 &#9;"/>
  </g>
  <rect x="136.819" y="88.406" transform="matrix(0.7071 -0.7071 0.7071 0.7071 -62.5245 159.6058)" style="fill:#C6C5CA;" width="49.161" height="133.742"/>
  <g>
    <polygon style="fill:#898890;" points="317.108,185.187 396.088,106.206 380.502,90.619 285.934,185.187 320.7,219.953 &#10;&#9;&#9;336.286,204.366 &#9;"/>
    <polygon style="fill:#898890;" points="127.907,125.385 147.085,106.206 131.499,90.619 96.733,125.385 191.3,219.953 &#10;&#9;&#9;206.887,204.366 &#9;"/>
  </g>
  <path style="fill:#C6C5CA;" d="M36.767,159.98l-0.936-0.936c-33.637,33.637-33.637,88.173,0,121.81s88.173,33.637,121.81,0l0,0 c-20.625-20.625-20.625-54.067,0-74.693l9.934-9.934l-46.181-46.181l-9.934,9.934C90.834,180.606,57.393,180.606,36.767,159.98z"/>
  <g>
    <path style="fill:#898890;" d="M487.554,173.114c-3.233-4.979-7.019-9.703-11.385-14.069l-0.936,0.935 c-5.908,5.908-12.87,10.116-20.279,12.639C465.491,176.209,476.932,176.372,487.554,173.114z"/>
    <path style="fill:#898890;" d="M137.772,166.425l-16.378-16.378l-9.934,9.934c-5.908,5.908-12.87,10.116-20.279,12.639 C106.575,177.863,123.904,175.797,137.772,166.425z"/>
    <path style="fill:#898890;" d="M69.965,280.854c-29.271-29.271-33.057-74.362-11.385-107.74 c-7.981-2.448-15.498-6.82-21.812-13.134l-0.935-0.935c-33.637,33.637-33.637,88.173,0,121.81 c21.182,21.182,50.651,29.013,77.972,23.517C97.74,301.138,82.419,293.308,69.965,280.854z"/>
    <path style="fill:#898890;" d="M388.492,280.854L388.492,280.854c20.625-20.625,20.625-54.067,0-74.693l-9.934-9.934l29.803-29.803 c-2.756-1.863-5.381-4.004-7.821-6.444l-9.934-9.934l-46.181,46.181l9.934,9.934c20.625,20.625,20.625,54.067,0,74.693l0,0 c21.182,21.182,50.651,29.013,77.972,23.517C416.268,301.138,400.947,293.308,388.492,280.854z"/>
  </g>
  <polygon style="fill:#FFB655;" points="283.326,249.935 256,277.289 474.056,495.568 501.396,468.228 "/>
  <polygon style="fill:#FF7956;" points="279.397,277.289 295.024,261.646 283.326,249.935 256,277.289 474.056,495.568 &#10;&#9;485.76,483.863 "/>
  <polygon style="fill:#FFB655;" points="256,222.581 222.353,188.9 195.013,216.24 228.674,249.935 "/>
  <polygon style="fill:#FFFFFF;" points="439.261,460.738 466.613,433.409 418.461,385.208 391.109,412.537 "/>
  <polygon style="fill:#FF7956;" points="218.411,216.24 234.046,200.604 222.354,188.9 195.013,216.24 228.674,249.935 &#10;&#9;240.372,238.225 "/>
  <polygon style="fill:#D8D7DA;" points="414.507,412.537 430.148,396.908 418.461,385.208 391.109,412.537 439.261,460.738 &#10;&#9;450.971,449.039 "/>
  <g>
    <path style="fill:#FFFFFF;" d="M470.005,245.424c2.445-5.155,4.149-10.638,5.063-16.294l-14.809-2.393 c-0.688,4.258-1.969,8.381-3.808,12.257L470.005,245.424z"/>
    <path style="fill:#FFFFFF;" d="M475.827,217.772c-0.152-5.72-1.105-11.377-2.832-16.814l-14.297,4.541 c1.302,4.096,2.02,8.359,2.135,12.672L475.827,217.772z"/>
    <path style="fill:#FFFFFF;" d="M447.516,251.646c-8.598,8.598-20.057,13.333-32.266,13.333c-4.896,0-9.729-0.775-14.363-2.305 l-4.701,14.244c6.154,2.031,12.568,3.061,19.064,3.061c16.215,0,31.441-6.295,42.871-17.725c2.189-2.188,4.222-4.556,6.041-7.037 l-12.096-8.87C450.698,248.213,449.167,249.995,447.516,251.646z"/>
    <rect x="306.617" y="166.615" transform="matrix(-0.7071 0.7071 -0.7071 -0.7071 688.5497 63.023)" style="fill:#FFFFFF;" width="49.211" height="15"/>
    <rect x="371.147" y="119.164" transform="matrix(-0.7071 -0.7071 0.7071 -0.7071 556.8261 483.9739)" style="fill:#FFFFFF;" width="15" height="15"/>
    <rect x="353.471" y="136.852" transform="matrix(-0.7071 -0.7071 0.7071 -0.7071 514.1437 501.6691)" style="fill:#FFFFFF;" width="15" height="15"/>
    <path style="fill:#FFFFFF;" d="M39.006,200.956c-1.727,5.436-2.68,11.093-2.833,16.815l14.995,0.399 c0.115-4.314,0.833-8.578,2.134-12.671L39.006,200.956z"/>
    <path style="fill:#FFFFFF;" d="M55.548,238.993c-1.839-3.875-3.12-7.998-3.808-12.256l-14.808,2.393 c0.914,5.657,2.618,11.139,5.064,16.294L55.548,238.993z"/>
    <path style="fill:#FFFFFF;" d="M96.751,279.98c6.495,0,12.909-1.03,19.064-3.061l-4.7-14.244 c-4.636,1.529-9.469,2.305-14.364,2.305c-12.208,0-23.667-4.735-32.265-13.333c-1.651-1.651-3.182-3.435-4.55-5.3l-12.096,8.871 c1.818,2.479,3.851,4.846,6.04,7.035C65.31,273.684,80.536,279.98,96.751,279.98z"/>
    <rect x="143.508" y="136.832" transform="matrix(0.7071 -0.7071 0.7071 0.7071 -57.8291 149.053)" style="fill:#FFFFFF;" width="15" height="15"/>
    <rect x="173.275" y="149.508" transform="matrix(0.7071 -0.7071 0.7071 0.7071 -70.1692 178.8237)" style="fill:#FFFFFF;" width="15" height="49.211"/>
    <rect x="125.826" y="119.154" transform="matrix(0.7071 0.7071 -0.7071 0.7071 128.6082 -57.18)" style="fill:#FFFFFF;" width="15" height="15"/>
  </g>
  <g>
    <path style="fill:#1D1D1F;" d="M316.99,226.295l3.71,3.71l105.174-105.174l-3.805-3.805l19.217-19.17l-37.978-37.916 l-19.185,19.138l-3.62-3.62L275.328,184.632l3.715,3.715L0,467.676l37.947,37.947l34.797-34.832l0.018,0.018l58.753-58.813 l-0.018-0.018L316.99,226.295z M403.305,85.132l16.747,16.718l-8.59,8.568l-16.733-16.733L403.305,85.132z M380.482,100.692 l24.18,24.139l-83.961,83.961l-24.158-24.16L380.482,100.692z M306.384,215.688l-54.097,54.152l-8.399-8.398l-10.606,10.606 l8.404,8.404l-41.45,41.492l-8.754-8.755l-10.606,10.606l8.76,8.76l-68.748,68.818l-16.74-16.725l17.469-17.487l8.276,8.276 l10.606-10.606l-8.281-8.281L289.65,198.955L306.384,215.688z M69.489,419.376l16.715,16.715l-13.471,13.485l-16.722-16.709 L69.489,419.376z M96.806,425.479l-16.715-16.715l13.471-13.485l16.722,16.708L96.806,425.479z M37.941,484.403L21.208,467.67 l24.184-24.209l16.74,16.726L37.941,484.403z"/>
    <rect x="376.246" y="180.376" transform="matrix(0.7071 0.7071 -0.7071 0.7071 245.2446 -216.3216)" style="fill:#1D1D1F;" width="15" height="15"/>
    <rect x="393.919" y="198.06" transform="matrix(0.7071 0.7071 -0.7071 0.7071 262.9258 -223.6389)" style="fill:#1D1D1F;" width="15" height="15"/>
    <rect x="411.635" y="215.647" transform="matrix(0.7071 0.7071 -0.7071 0.7071 280.5156 -230.9306)" style="fill:#1D1D1F;" width="14.762" height="15"/>
    <path style="fill:#1D1D1F;" d="M86.127,124.831l105.174,105.174l3.71-3.71l14.222,14.237l10.612-10.602l-14.228-14.242 l16.732-16.733l14.208,14.223l10.612-10.602l-14.213-14.228l3.715-3.715L131.499,79.459l-3.62,3.62l-19.186-19.139l-37.979,37.915 l19.217,19.17L86.127,124.831z M191.301,208.791l-83.961-83.961l24.18-24.139l83.941,83.94L191.301,208.791z M91.95,101.85 l16.747-16.718l8.575,8.553l-16.732,16.732L91.95,101.85z"/>
    <path style="fill:#1D1D1F;" d="M96.737,312.983c23.978,0,47.954-9.126,66.208-27.38l5.303-5.303l-5.303-5.303 c-16.329-16.33-17.794-42.236-3.408-60.26l-11.724-9.357c-17.508,21.935-17.389,52.634-0.643,74.349 c-30.861,25.838-77.044,24.261-106.035-4.731c-28.954-28.955-30.564-75.056-4.831-105.916 c21.766,17.557,53.097,17.963,75.384,0.174l-9.357-11.724c-18.023,14.387-43.93,12.922-60.259-3.408l-6.239-6.239l-5.303,5.303 c-36.507,36.507-36.507,95.909,0,132.417C48.782,303.857,72.76,312.983,96.737,312.983z"/>
    <rect x="85.607" y="215.643" transform="matrix(-0.7071 0.7071 -0.7071 -0.7071 316.5268 315.1766)" style="fill:#1D1D1F;" width="14.762" height="15"/>
    <rect x="120.762" y="180.373" transform="matrix(-0.7071 -0.7071 0.7071 -0.7071 86.1112 411.4155)" style="fill:#1D1D1F;" width="15" height="15"/>
    <rect x="103.088" y="198.048" transform="matrix(-0.7071 0.7071 -0.7071 -0.7071 334.1295 272.6944)" style="fill:#1D1D1F;" width="15" height="15"/>
    <path style="fill:#1D1D1F;" d="M512,467.676l-34.78-34.816l0,0l-12.317-12.329L302.767,258.23l-10.611,10.602l87.628,87.718 l-8.282,8.282l10.607,10.606l8.276-8.276l17.469,17.487l-16.74,16.725l-68.748-68.818l8.76-8.76l-10.605-10.606l-8.755,8.755 l-36.325-36.362l-10.611,10.602l115.673,115.792l0,0l54.197,54.251l39.354,39.394L512,467.676z M490.793,467.671l-16.732,16.732 l-24.191-24.216l16.74-16.725L490.793,467.671z M456.007,432.85l-16.739,16.725l-13.471-13.485l16.732-16.732L456.007,432.85z M418.456,395.26l13.471,13.485l-16.732,16.732l-13.478-13.491L418.456,395.26z"/>
    <path style="fill:#1D1D1F;" d="M409.671,157.529l-9.357,11.723c22.283,17.788,53.614,17.384,75.384-0.173 c25.734,30.861,24.123,76.962-4.83,105.916c-28.994,28.992-75.175,30.569-106.035,4.73c16.746-21.714,16.865-52.413-0.644-74.349 l-11.723,9.357c14.386,18.023,12.921,43.93-3.408,60.26l-5.303,5.303l5.303,5.303c18.253,18.253,42.23,27.38,66.208,27.38 c23.978,0,47.954-9.126,66.208-27.38c36.507-36.507,36.507-95.909,0-132.417l-5.304-5.303l-6.239,6.239 C453.6,170.452,427.694,171.916,409.671,157.529z"/>
  </g>
  <g/>
  <g/>
  <g/>
  <g/>
  <g/>
  <g/>
  <g/>
  <g/>
  <g/>
  <g/>
  <g/>
  <g/>
  <g/>
  <g/>
  <g/>
</svg>